<svg width="104" height="105" viewBox="0 0 104 105" fill="none" xmlns="http://www.w3.org/2000/svg">
<path d="M7.30822 0.0847704C7.70043 0.0845315 8.09263 0.084161 8.48484 0.0836707C9.33581 0.0828192 10.1868 0.0830764 11.0377 0.0840743C12.3032 0.0855543 13.5687 0.0853035 14.8342 0.0847131C16.964 0.0837711 19.0938 0.0842453 21.2236 0.0855539C23.3335 0.08685 25.4433 0.0875861 27.5531 0.0875579L27.9512 0.0875544C28.4846 0.0875482 29.0179 0.0875384 29.5512 0.0875234C34.553 0.0873873 39.5547 0.0888812 44.5565 0.0911954C48.9966 0.0932422 53.4368 0.0941807 57.8769 0.0940797L58.7319 0.0940615L59.1589 0.0940523C59.8682 0.0940371 60.5776 0.0940235 61.2869 0.0940116L61.711 0.094004C65.4246 0.0939491 69.1381 0.094632 72.8517 0.0955638L73.2522 0.0956641C73.7837 0.0957976 74.3153 0.0959312 74.8468 0.0960686C76.6927 0.0965427 78.5387 0.0967703 80.3846 0.0968369C82.7646 0.0969268 85.1445 0.0975308 87.5245 0.099006C88.7819 0.0997721 90.0393 0.100138 91.2968 0.0999085C92.2375 0.0997843 93.1783 0.100451 94.119 0.101419C94.4982 0.10169 94.8774 0.101713 95.2566 0.101454C96.8932 0.100462 98.53 0.100371 100.165 0.170159L100.488 0.180162C101.322 0.224383 101.915 0.477153 102.569 0.986197C103.219 1.8213 103.177 2.83996 103.175 3.85049L103.177 4.29401C103.18 4.78489 103.18 5.27574 103.181 5.76663C103.182 6.121 103.184 6.47538 103.185 6.82975C103.189 7.69917 103.191 8.56858 103.193 9.438C103.195 10.4708 103.199 11.5035 103.203 12.5362C103.21 14.5417 103.216 16.5472 103.221 18.5527C103.225 20.3071 103.23 22.0616 103.235 23.816C103.237 24.2872 103.238 24.7583 103.24 25.2294L103.241 25.5834C103.259 31.5257 103.272 37.468 103.283 43.4104L103.284 43.7182C103.303 53.8793 103.306 64.0403 103.284 74.2014C103.283 74.6821 103.282 75.1628 103.281 75.6435C103.273 80.0157 103.26 84.3879 103.242 88.7601C103.237 89.8139 103.234 90.8677 103.231 91.9214C103.228 93.182 103.223 94.4425 103.216 95.703C103.212 96.3412 103.209 96.9794 103.208 97.6177C103.208 98.2014 103.205 98.7852 103.2 99.3689C103.199 99.5788 103.198 99.7888 103.198 99.9987C103.201 102.903 103.201 102.903 102.435 103.833C101.26 104.936 99.6891 104.909 98.1688 104.905L97.7138 104.905C97.2092 104.906 96.7046 104.905 96.2001 104.905C95.8351 104.905 95.4701 104.905 95.1052 104.906C94.3108 104.906 93.5165 104.906 92.7221 104.906C91.5406 104.905 90.359 104.906 89.1774 104.906C87.0653 104.907 84.9531 104.907 82.841 104.906C80.9884 104.906 79.1359 104.906 77.2834 104.906L76.9106 104.906C76.4112 104.906 75.9117 104.906 75.4123 104.906C70.7221 104.907 66.032 104.906 61.3418 104.905C57.1903 104.905 53.0389 104.905 48.8874 104.906C44.2157 104.906 39.5439 104.907 34.8722 104.906C34.3716 104.906 33.8711 104.906 33.3705 104.906L32.9971 104.906C31.1519 104.906 29.3068 104.906 27.4617 104.906C25.3544 104.907 23.247 104.907 21.1397 104.906C20.0679 104.905 18.996 104.905 17.9241 104.906C14.0413 104.908 10.1583 104.903 6.27584 104.845C5.94177 104.84 5.60769 104.836 5.27359 104.833C4.81649 104.828 4.35952 104.82 3.90247 104.812L3.50062 104.809C2.60998 104.788 1.7008 104.693 0.995236 104.088C0.226875 103.231 0.127871 102.322 0.125067 101.215L0.120583 100.832C0.11599 100.406 0.113543 99.979 0.111118 99.5522C0.108325 99.2411 0.105426 98.93 0.10243 98.6189C0.0945784 97.7541 0.0887929 96.8893 0.0834677 96.0245C0.0798919 95.4652 0.0757901 94.9059 0.0715289 94.3465C-0.0129193 83.1785 -0.00123888 72.0099 0.00311085 60.8416C0.00350165 59.8159 0.00383212 58.7902 0.0041177 57.7645C0.00637381 49.5971 0.0119682 41.4296 0.0211498 33.2622C0.0220968 32.4141 0.0229927 31.566 0.023851 30.718C0.0290246 25.6195 0.0376522 20.5211 0.0555598 15.4227C0.0592544 14.3343 0.0614755 13.2459 0.0630447 12.1575C0.0649265 10.8733 0.0688274 9.5892 0.0756664 8.30504C0.0789912 7.674 0.0814607 7.04299 0.0813044 6.41193C0.0811939 5.8494 0.0838204 5.28695 0.0887084 4.72443C0.0905707 4.43032 0.089535 4.1362 0.0883626 3.84209C0.100604 2.81632 0.160913 1.88215 0.773935 1.02381C2.36175 -0.411301 5.30964 0.0803667 7.30822 0.0847704ZM7.53769 7.33667C7.52139 7.59857 7.51569 7.86114 7.51403 8.12354L7.50966 8.64413L7.50712 9.22369C7.50571 9.42724 7.50424 9.63079 7.50271 9.83433C7.49868 10.3969 7.49561 10.9596 7.49271 11.5222C7.49012 12.0044 7.487 12.4867 7.48387 12.9689C7.47442 14.4271 7.46643 15.8853 7.45878 17.3435C7.45434 18.1885 7.44958 19.0335 7.44478 19.8784C7.37536 32.1807 7.364 44.4828 7.36792 56.7852C7.3686 58.9641 7.36847 61.1429 7.36778 63.3217C7.36697 65.9277 7.36667 68.5337 7.36712 71.1397C7.36717 71.4201 7.36722 71.7006 7.36727 71.981L7.36734 72.398C7.36746 73.3313 7.36725 74.2645 7.36689 75.1978C7.36571 78.6306 7.37039 82.0635 7.38738 85.4963L7.38934 85.8975C7.3983 87.6939 7.41094 89.4901 7.42833 91.2864C7.43337 91.8134 7.4374 92.3403 7.44055 92.8672C7.44428 93.4793 7.45016 94.0914 7.45778 94.7034C7.46022 94.9284 7.4619 95.1534 7.46279 95.3783C7.46412 95.685 7.46848 95.9916 7.47302 96.2983L7.47789 96.8189L7.53769 97.2202C8.01296 97.5371 8.12297 97.5584 8.66531 97.5583L9.08792 97.5604L9.55296 97.558L10.0464 97.5591C10.5947 97.56 11.1431 97.5586 11.6914 97.5573C12.0834 97.5575 12.4754 97.5578 12.8674 97.5582C13.8232 97.559 14.779 97.5581 15.7348 97.5567C16.8471 97.5552 17.9594 97.5552 19.0717 97.5552C21.0558 97.5553 23.0398 97.5539 25.0239 97.5517C26.9507 97.5496 28.8775 97.5485 30.8043 97.5487L31.1639 97.5487L31.5229 97.5487C33.7144 97.5488 35.9059 97.5479 38.0973 97.5466C38.8733 97.5461 39.6493 97.546 40.4254 97.5458C41.4689 97.5457 42.5125 97.5448 43.5561 97.5432C43.9401 97.5428 44.3242 97.5426 44.7082 97.5426C45.2304 97.5427 45.7525 97.5419 46.2747 97.5408L46.7407 97.5415L47.1622 97.54L47.5277 97.5397C47.8322 97.539 47.8322 97.539 48.1206 97.3704C48.1241 95.2564 48.1267 93.1425 48.1284 91.0286C48.1291 90.0471 48.1302 89.0656 48.1319 88.0841C48.1335 87.1378 48.1344 86.1915 48.1348 85.2452C48.1351 84.8833 48.1356 84.5214 48.1365 84.1595C48.1375 83.6545 48.1377 83.1495 48.1377 82.6445L48.1393 82.1861L48.1387 81.7716L48.1391 81.4093C48.1504 81.134 48.1504 81.134 47.9703 80.9869C47.6765 80.9704 47.3821 80.9635 47.0879 80.9605L46.5345 80.9496C46.1505 80.9433 45.7665 80.9385 45.3825 80.9356C44.0753 80.906 42.9371 80.7823 41.8923 79.9401L41.6575 79.6436L41.4132 79.3482C40.813 78.4326 40.8011 77.5434 40.9059 76.4777C41.1242 75.5432 41.4937 74.8742 42.2328 74.2613C43.4435 73.5624 44.5576 73.5476 45.9318 73.528C46.3137 73.5203 46.6955 73.5121 47.0773 73.5033L47.586 73.4953C47.9603 73.5148 47.9603 73.5148 48.1207 73.3213C48.1357 73.0225 48.1403 72.7233 48.1406 72.4241L48.1412 71.8728L48.1395 71.2921L48.1412 70.7115L48.1406 70.1601L48.1402 69.6502C48.1646 69.2733 48.1646 69.2733 47.9704 69.1127C47.6985 69.0962 47.4261 69.0893 47.1537 69.0863L46.6414 69.0754C46.2864 69.069 45.9314 69.0643 45.5764 69.0613C44.1107 69.0256 42.8079 68.7186 41.6575 67.7599C40.877 66.6883 40.7814 65.5951 40.906 64.3029C41.0337 63.9153 41.1856 63.5724 41.3757 63.212C41.5297 62.9542 41.5297 62.9542 41.5072 62.6495C42.995 61.8872 44.29 61.6573 45.96 61.6443C46.3378 61.638 46.7155 61.6312 47.0932 61.6238L47.5932 61.6187C47.9613 61.6399 47.9613 61.6399 48.1207 61.447C48.1351 61.2398 48.139 61.0318 48.1388 60.8241L48.1394 60.4172L48.1378 59.9674L48.1378 59.4965C48.1377 58.98 48.1365 58.4636 48.1354 57.9471C48.1351 57.5901 48.1349 57.2331 48.1348 56.8761C48.1342 55.9344 48.1327 54.9927 48.1311 54.051C48.1295 53.0909 48.1288 52.1308 48.1281 51.1707C48.1265 49.2853 48.1239 47.3999 48.1207 45.5145C47.6429 45.3872 47.2203 45.3438 46.7245 45.3378L46.2578 45.3269C45.9376 45.3205 45.6174 45.3158 45.2972 45.3128C43.9629 45.277 42.8243 45.0342 41.8172 44.1148C41.0007 43.202 40.8287 42.3456 40.8631 41.1456C40.9651 40.0968 41.3495 39.3424 42.1085 38.6004C42.9612 38.078 43.7188 37.833 44.7212 37.8066L45.2902 37.7895C45.6878 37.779 46.0855 37.7684 46.4832 37.7578L47.051 37.7408L47.5742 37.727C47.959 37.7428 47.959 37.7428 48.1207 37.5482C48.1339 37.2696 48.1368 36.9905 48.1354 36.7116L48.1339 36.1993L48.1301 35.66L48.128 35.119C48.1263 34.6761 48.1238 34.2334 48.1207 33.7906L47.7858 33.7839C47.2774 33.7726 46.769 33.7581 46.2607 33.7436L45.734 33.7333C44.2243 33.6864 42.8833 33.5317 41.762 32.4489C41.0302 31.5535 40.799 30.5325 40.849 29.3923C40.9795 28.4497 41.2814 27.6286 41.9769 26.961C43.2252 26.0579 44.6985 26.0494 46.1855 26.0216L46.7515 26.006C47.2079 25.9937 47.6642 25.9833 48.1207 25.9746C48.1244 25.3566 48.1271 24.7385 48.129 24.1205C48.1297 23.9101 48.1308 23.6997 48.132 23.4893C48.1339 23.1875 48.1347 22.8857 48.1354 22.5839L48.1378 22.0329C48.1685 21.6295 48.1685 21.6295 47.9704 21.4654C47.6983 21.4559 47.4259 21.4565 47.1537 21.4613L46.6414 21.4668C46.2864 21.472 45.9314 21.4779 45.5764 21.4844C42.7636 21.5116 42.7636 21.5116 41.6575 20.5635C40.9864 19.6747 40.8722 18.9952 40.859 17.905L40.8458 17.5506C40.8354 16.5899 41.0556 15.7792 41.7302 15.0676C42.4659 14.4281 43.0816 14.3762 44.0166 14.3587L44.3573 14.3503C44.8384 14.3385 45.3194 14.3282 45.8004 14.3179C46.1515 14.3102 46.5026 14.3016 46.8537 14.2929L47.1858 14.2867C47.6967 14.3183 47.6967 14.3183 48.1207 14.1003C48.1347 13.8834 48.1384 13.6659 48.1378 13.4486L48.1377 13.0291L48.1354 12.5732L48.1348 12.1088C48.1339 11.6171 48.1321 11.1255 48.1301 10.6339C48.1294 10.3015 48.1286 9.96903 48.1281 9.63662C48.1264 8.81981 48.1239 8.00301 48.1208 7.1862C42.9724 7.18276 37.8241 7.18011 32.6758 7.17853C32.0687 7.17833 31.4615 7.17815 30.8544 7.17794L30.4881 7.17782C28.5282 7.17716 26.5683 7.17598 24.6085 7.1746C22.599 7.1732 20.5895 7.17236 18.58 7.17205C17.339 7.17184 16.0981 7.1712 14.8571 7.16997C14.0073 7.16918 13.1575 7.16894 12.3077 7.16913C11.8167 7.16923 11.3256 7.16899 10.8346 7.16828C10.3035 7.16754 9.77235 7.1677 9.24123 7.16812L8.76583 7.1668L8.33812 7.1677L7.9661 7.16754C7.68566 7.15575 7.68547 7.15591 7.53769 7.33667ZM55.3353 7.18636V14.1005C55.6133 14.3785 56.0722 14.2737 56.4444 14.2772L57.043 14.2881C57.3573 14.2933 57.6715 14.2977 57.9858 14.2998C59.1836 14.3091 60.1722 14.3232 61.1973 15.0023C62.0785 15.9067 62.1537 16.7828 62.1555 17.9897L62.1666 18.3872C62.1707 19.2943 62.0349 19.8263 61.4979 20.5637C61.2078 20.8255 61.2078 20.8255 60.9154 20.9958L60.6254 21.1731C59.9295 21.4728 59.2038 21.4832 58.4559 21.4749L57.9325 21.4714L57.3926 21.4655C57.0362 21.4617 56.6798 21.4586 56.3235 21.4561L55.8471 21.4508C55.4928 21.4243 55.4928 21.4243 55.3353 21.6158C55.3203 21.9255 55.3156 22.2358 55.3153 22.5459L55.3147 23.1177L55.3156 23.417C55.3164 23.7189 55.3156 24.0207 55.3147 24.3225L55.3153 24.8944L55.3158 25.4234C55.2896 25.8125 55.2896 25.8125 55.4855 25.9747C55.7464 25.9912 56.008 25.9982 56.2694 26.0011L56.7611 26.012C57.1016 26.0184 57.4422 26.0231 57.7827 26.0261C59.0727 26.0589 60.0747 26.3175 61.1784 26.9893C62.0512 27.9134 62.195 28.8 62.1796 30.0316C62.1353 30.9702 61.9468 31.7066 61.3475 32.4379C60.0643 33.5844 58.7251 33.6873 57.0732 33.7343L56.5662 33.7519C56.1559 33.766 55.7456 33.7789 55.3352 33.7907C55.3057 34.3574 55.278 34.9242 55.2507 35.491L55.2252 35.9792L55.2031 36.4475L55.1817 36.8792C55.1662 37.2687 55.1662 37.2687 55.3352 37.6987L55.6587 37.7053C56.1491 37.7166 56.6393 37.7311 57.1295 37.7456L57.6383 37.7559C59.2295 37.8073 60.3482 38.0558 61.5148 39.1777C62.255 40.025 62.3446 40.9507 62.3098 42.0529C62.1895 42.9592 61.8685 43.6885 61.1731 44.2946C60.2243 44.9504 59.4025 45.2531 58.2474 45.2986C57.2734 45.3455 56.3059 45.4212 55.3352 45.5146C55.142 50.8823 55.1608 56.2294 55.3352 61.5975L55.624 61.6041C60.3027 61.7244 60.3027 61.7244 61.4978 62.8C62.2874 63.8706 62.3021 64.8946 62.1918 66.1789C62.053 66.9705 61.7822 67.5086 61.1972 68.0607C60.2401 68.6862 59.3469 68.9696 58.2122 69.0101L57.7043 69.0292L57.1765 69.0471L56.6416 69.0668C56.2062 69.0827 55.7707 69.098 55.3352 69.1128C55.3315 69.7095 55.3288 70.3061 55.327 70.9027C55.3262 71.1058 55.3252 71.3089 55.3239 71.512C55.3221 71.8034 55.3213 72.0947 55.3206 72.3861L55.3182 72.918C55.2892 73.3093 55.2892 73.3093 55.4855 73.4717C55.7609 73.49 56.0369 73.4988 56.3128 73.5035L56.8292 73.5164C57.1881 73.5241 57.5471 73.5308 57.906 73.5363C59.2794 73.5735 60.3805 73.7383 61.4162 74.7077C62.216 75.6289 62.3494 76.6246 62.3063 77.8177C62.1766 78.8738 61.7068 79.5116 60.9078 80.1868C59.758 80.9209 58.7271 80.9117 57.3832 80.9307C57 80.9383 56.6168 80.9465 56.2336 80.9554L55.7219 80.9634C55.3455 80.9436 55.3455 80.9436 55.1849 81.1374C55.17 81.3413 55.1653 81.5461 55.1648 81.7506L55.1629 82.151L55.1631 82.5937L55.1615 83.0573C55.16 83.5659 55.1598 84.0746 55.1596 84.5833C55.1592 84.9355 55.1586 85.2877 55.1581 85.6399C55.1572 86.3794 55.1569 87.119 55.1571 87.8586C55.1571 88.8073 55.155 89.7561 55.1524 90.7048C55.1508 91.4327 55.1505 92.1606 55.1505 92.8884C55.1504 93.2382 55.1496 93.588 55.1485 93.9378C55.147 94.4269 55.1475 94.9159 55.1484 95.405L55.1459 95.8449L55.1478 96.2492L55.1475 96.5996C55.1898 96.9621 55.3165 97.2004 55.4855 97.5209C60.5955 97.5243 65.7055 97.5269 70.8155 97.5285C71.4182 97.5287 72.0208 97.529 72.6235 97.5291L72.987 97.5293C74.9323 97.5299 76.8776 97.5311 78.8229 97.5325C80.8174 97.5338 82.812 97.5347 84.8065 97.535C86.0382 97.5352 87.27 97.5359 88.5017 97.5371C89.4446 97.538 90.3875 97.5381 91.3303 97.5378C91.7183 97.5379 92.1063 97.5381 92.4943 97.5387C93.0215 97.5395 93.5486 97.5393 94.0758 97.5389L94.5477 97.5402L94.9722 97.5393L95.3415 97.5395C95.6202 97.551 95.6202 97.551 95.7678 97.3705C95.7866 96.9457 95.7955 96.5243 95.7982 96.0993L95.8026 95.6899C95.8073 95.2335 95.8109 94.7771 95.8144 94.3207C95.8175 93.9952 95.8206 93.6698 95.8237 93.3444C95.8321 92.4542 95.8393 91.564 95.8463 90.6738C95.8507 90.1095 95.8555 89.5453 95.8603 88.981C95.9294 80.7756 95.9428 72.5704 95.9432 64.3648C95.9433 63.1867 95.9437 62.0087 95.944 60.8306C95.9441 60.4278 95.9443 60.0249 95.9444 59.622L95.9445 59.3181C95.9454 56.5341 95.946 53.75 95.946 50.966V50.6535C95.946 50.1316 95.946 49.6097 95.946 49.0878L95.946 48.774L95.9459 48.1458C95.9458 44.8496 95.947 41.5533 95.949 38.257C95.9513 34.5133 95.9526 30.7695 95.9525 27.0258C95.9524 25.0567 95.9528 23.0876 95.9545 21.1185C95.9558 19.4553 95.9562 17.7921 95.9551 16.1288C95.9546 15.282 95.9546 14.4353 95.9558 13.5885C95.957 12.8145 95.9567 12.0405 95.9555 11.2665C95.9552 10.9863 95.9556 10.7061 95.9564 10.4259C95.9575 10.046 95.9567 9.6662 95.9554 9.28632L95.9576 8.95501C95.9528 8.26718 95.8541 7.20907 95.6173 7.18632C95.3806 7.16357 55.3353 7.18636 55.3353 7.18636Z" fill="url(#paint0_linear_25_94)"/>
<path d="M19.5209 14.0805L19.9518 14.0786L20.4215 14.0788L20.9187 14.0772C21.4618 14.0758 22.0049 14.0755 22.548 14.0753C22.9254 14.0749 23.3028 14.0744 23.6802 14.0738C24.4718 14.0729 25.2634 14.0726 26.055 14.0727C26.9684 14.0728 27.8818 14.0712 28.7952 14.0689C29.6754 14.0667 30.5556 14.0661 31.4359 14.0662C31.8096 14.066 32.1834 14.0654 32.5572 14.0642C33.0803 14.0627 33.6034 14.0632 34.1265 14.0641L34.5934 14.0615C36.501 14.0699 36.501 14.0699 37.2704 14.8052C38.2114 16.23 38.1059 18.2793 37.7965 19.9039C37.5096 20.7885 37.2265 21.1533 36.3967 21.6159C35.9838 21.6665 35.6337 21.687 35.2236 21.6747L34.9309 21.6728C34.574 21.6697 34.2172 21.6613 33.8603 21.6535L31.4366 21.6159V27.9288C32.8665 27.9111 32.8665 27.9111 34.2963 27.8882C35.3487 27.8816 36.2062 27.8867 37.1483 28.3798C37.9801 29.3648 38.0993 30.3635 38.0877 31.602L38.0912 31.9757C38.0886 32.8067 38.083 33.6771 37.5387 34.3533C36.7668 34.9229 36.2026 35.0187 35.2677 35.0408L34.936 35.0503C34.5868 35.0601 34.2377 35.069 33.8885 35.0778C33.6516 35.0843 33.4147 35.0909 33.1778 35.0975C32.5974 35.1137 32.017 35.1286 31.4366 35.1436L31.2863 39.6528L32.4512 39.0703L33.6912 38.4503L34.0079 38.2849C34.3423 38.1261 34.5904 38.0998 34.9594 38.0934L35.297 38.0804C35.9136 38.2031 36.2987 38.6086 36.6476 39.1151C36.8832 39.5528 37.1167 39.9912 37.3456 40.4325L37.596 40.8896C38.0572 41.7703 38.4146 42.5548 38.2004 43.5608C37.7014 44.5642 36.8166 44.8592 35.8184 45.2523C35.0768 45.552 34.3772 45.9273 33.6724 46.3039L33.3001 46.5028C33.0784 46.6215 32.8568 46.7406 32.6355 46.86L32.3385 47.0178L32.0279 47.1885C31.7372 47.3184 31.7372 47.3184 31.2863 47.3184L31.2893 47.7047C31.2984 48.9141 31.3053 50.1234 31.3097 51.3327C31.312 51.9542 31.3152 52.5757 31.3203 53.1973C31.3253 53.7986 31.3279 54.3999 31.3291 55.0012C31.3299 55.2291 31.3315 55.4569 31.334 55.6848C31.3582 58.0262 31.0698 60.1628 29.4398 61.9546C27.633 63.6667 25.4547 63.8801 23.0852 63.8992L22.5359 63.9124C20.8714 63.9243 20.8714 63.9243 20.1636 63.251C19.5255 62.6094 19.2533 61.8259 18.9329 60.9964L18.7712 60.5912C18.129 58.9584 18.129 58.9584 18.3599 58.3378C18.771 57.8625 19.1017 57.8231 19.7127 57.6896C20.1337 57.6672 20.5504 57.6825 20.9715 57.699C22.0238 57.7196 22.9569 57.6968 23.8614 57.0725C24.631 56.0299 24.4391 54.4213 24.4661 53.1804C24.4719 52.9614 24.4777 52.7424 24.4837 52.5234C24.4981 51.9909 24.5107 51.4584 24.5225 50.9258C23.0314 51.626 21.5416 52.3262 20.0779 53.0824C18.1178 54.0813 18.1178 54.0813 17.1575 53.9319C16.3863 53.4493 16.0558 52.7878 15.645 52.0061C15.518 51.7703 15.391 51.5344 15.2639 51.2986L15.0809 50.953C14.9161 50.6496 14.741 50.3552 14.5623 50.0598C14.3171 49.6019 14.2092 49.3332 14.1983 48.8215L14.1777 48.4645C14.4467 47.6081 15.0872 47.1615 15.8568 46.7468C16.3594 46.5049 16.8693 46.2808 17.3817 46.0606C17.9401 45.8205 18.4949 45.5724 19.0504 45.3257L19.3818 45.1794C20.2892 44.7778 21.1838 44.3538 22.0706 43.9083L22.4236 43.7329C23.3649 43.262 23.3649 43.262 24.2219 42.6589C24.4189 41.8948 24.3892 41.1201 24.3816 40.3368L24.3799 39.9294C24.378 39.5021 24.3752 39.0749 24.3722 38.6476C24.3682 38.0834 24.3652 37.5191 24.3628 36.9549L24.359 36.562L24.3575 36.1971L24.3551 35.8766C24.3722 35.5945 24.3722 35.5945 24.5225 35.1436L24.2147 35.1409C23.1565 35.1313 22.0983 35.1186 21.04 35.1041C20.6452 35.0991 20.2504 35.0949 19.8556 35.0915C19.2877 35.0864 18.7199 35.0786 18.1521 35.0702L17.6182 35.0673C16.0812 35.0396 16.0812 35.0396 15.3538 34.5423C14.5883 33.7241 14.7203 32.7039 14.715 31.6489L14.7056 31.188C14.7004 30.1828 14.7429 29.2508 15.4028 28.4335C16.2841 27.7187 17.8464 27.8887 18.9153 27.8995L19.4043 27.9008C19.9142 27.9024 20.424 27.9062 20.9339 27.91C21.2819 27.9115 21.6299 27.9129 21.9778 27.9141C22.8261 27.9172 23.6742 27.9231 24.5225 27.9288V21.6159C22.6339 21.6397 22.6339 21.6397 20.7454 21.6701C20.5072 21.6719 20.2691 21.6734 20.0309 21.6746L19.6613 21.684C18.8517 21.6845 18.4048 21.5469 17.7587 21.0147C16.9693 20.1824 16.9928 18.897 17.0066 17.8054C17.0929 15.2173 17.0929 15.2173 17.8996 14.4106C18.4359 14.1343 18.9225 14.0817 19.5209 14.0805Z" fill="url(#paint1_linear_25_94)"/>
<path d="M67.069 19.1343C67.2521 19.1326 67.4352 19.1309 67.6239 19.1292C67.8256 19.1303 68.0273 19.1316 68.229 19.1329C68.4424 19.1321 68.6557 19.131 68.8691 19.1297C69.4477 19.1269 70.0262 19.128 70.6048 19.1299C71.2108 19.1314 71.8168 19.13 72.4228 19.1291C73.4405 19.128 74.4583 19.1294 75.4761 19.1323C76.6519 19.1355 77.8276 19.1345 79.0034 19.1312C80.0136 19.1285 81.0238 19.1281 82.0341 19.1296C82.6371 19.1306 83.2401 19.1307 83.8432 19.1287C84.4104 19.127 84.9774 19.1282 85.5446 19.1317C85.7524 19.1325 85.9602 19.1322 86.1681 19.1309C88.1223 19.1196 88.1223 19.1196 88.8537 19.8119C89.5301 20.745 89.4909 21.6679 89.5019 22.7805C89.5062 22.9254 89.5106 23.0703 89.5151 23.2196C89.5234 24.1585 89.4179 24.9013 88.8537 25.6739C88.1536 26.231 87.6171 26.4446 86.7322 26.4425C86.5758 26.4424 86.4193 26.4424 86.2581 26.4424C86.0895 26.4416 85.9209 26.4409 85.7471 26.4401C85.5743 26.4399 85.4014 26.4397 85.2233 26.4394C84.6705 26.4386 84.1176 26.4367 83.5647 26.4348C83.1902 26.434 82.8157 26.4333 82.4413 26.4327C81.5225 26.4312 80.6037 26.4283 79.6849 26.4254C79.6353 28.9551 79.5857 31.4847 79.5346 34.0911C81.9673 34.0732 81.9673 34.0732 84.4 34.0504C84.706 34.0491 85.012 34.048 85.3179 34.047C85.4756 34.0447 85.6332 34.0424 85.7957 34.04C86.6285 34.0397 87.2367 34.0631 87.9518 34.542C88.8935 35.4837 89.0497 36.5067 89.0603 37.7736C89.0483 38.9123 88.9854 39.7603 88.201 40.6553C87.4967 41.2175 86.6456 41.0978 85.7876 41.0786C85.6088 41.0775 85.4299 41.0764 85.2456 41.0753C84.6758 41.0712 84.1063 41.0617 83.5366 41.0521C83.1496 41.0484 82.7627 41.0449 82.3758 41.0419C81.4287 41.0336 80.4817 41.021 79.5346 41.0052C79.5354 41.1204 79.5362 41.2357 79.537 41.3544C79.5401 41.8768 79.5421 42.3992 79.544 42.9216C79.5453 43.103 79.5465 43.2843 79.5478 43.4712C79.5483 43.6455 79.5488 43.8199 79.5493 43.9996C79.5501 44.1602 79.5509 44.3207 79.5517 44.4862C79.5369 44.8566 79.4919 45.1615 79.3843 45.5144C79.5388 45.4563 79.6932 45.3981 79.8523 45.3383C80.284 45.1759 80.716 45.0141 81.1481 44.8527C81.5261 44.7115 81.9033 44.5687 82.2801 44.4241C84.0306 43.7615 84.0306 43.7615 84.8893 43.9456C85.8294 44.5146 86.2634 45.5124 86.7118 46.4726C86.7717 46.5947 86.8315 46.7167 86.8932 46.8425C87.2946 47.6915 87.682 48.5785 87.3694 49.5163C86.5576 50.4236 85.4542 50.9144 84.3726 51.4327C84.2612 51.4866 84.1498 51.5404 84.035 51.5958C83.9284 51.6455 83.8219 51.6951 83.7121 51.7463C83.5692 51.8132 83.5692 51.8132 83.4234 51.8815C83.142 51.9776 83.142 51.9776 82.5408 51.9776C83.7251 53.2032 85.1128 54.1679 86.5496 55.0726C87.2179 55.4949 87.8702 55.9361 88.5155 56.3929C88.6052 56.4555 88.6949 56.5182 88.7873 56.5828C89.3218 56.9646 89.7001 57.247 89.8277 57.9194C89.7166 58.722 89.3107 59.3297 88.9006 60.019C88.8209 60.1579 88.7412 60.2969 88.659 60.44C87.5649 62.3168 87.5649 62.3168 86.8997 62.6494C85.9087 62.74 85.4091 62.5726 84.6169 61.9918C84.5204 61.9241 84.4238 61.8564 84.3244 61.7866C84.0278 61.5766 83.7349 61.3623 83.4426 61.1463C83.3538 61.0813 83.265 61.0164 83.1736 60.9494C82.0537 60.1253 81.0044 59.237 79.9856 58.2905C79.8311 58.1496 79.6764 58.0089 79.5217 57.8683C78.3913 56.8379 77.3007 55.7733 76.2279 54.6831C76.1125 54.7337 75.9972 54.7842 75.8784 54.8363C73.7644 55.761 71.6479 56.6775 69.511 57.5483C69.3491 57.6145 69.1872 57.6806 69.0203 57.7487C65.8542 59.0311 65.8542 59.0311 65.1052 58.8917C64.0232 58.411 63.7583 57.447 63.3297 56.4023C63.2561 56.2295 63.1826 56.0568 63.1068 55.8788C62.3016 53.9776 62.3016 53.9776 62.3996 53.0297C62.958 52.3401 63.5576 52.0479 64.3577 51.7263C64.4747 51.6776 64.5916 51.6288 64.712 51.5786C65.0897 51.4217 65.4685 51.2675 65.8473 51.1133C66.1065 51.0063 66.3657 50.8992 66.6248 50.7919C67.1358 50.5806 67.6472 50.3704 68.1591 50.1613C68.762 49.9149 69.3637 49.6658 69.9649 49.4153C70.2614 49.2923 70.5579 49.1694 70.8544 49.0466C71.0538 48.9639 71.0538 48.9639 71.2571 48.8794C72.1343 48.5205 72.1343 48.5205 72.4702 48.5205C72.4702 46.0405 72.4702 43.5604 72.4702 41.0052C70.5389 41.023 70.5389 41.023 68.6077 41.0458C68.3637 41.0472 68.1198 41.0483 67.8759 41.0492C67.6892 41.0527 67.6892 41.0527 67.4988 41.0562C66.6872 41.0565 66.1197 40.9518 65.4058 40.5543C64.7217 39.8046 64.7204 38.8192 64.7482 37.8581C64.7484 37.7315 64.7486 37.6049 64.7488 37.4744C64.7633 36.4287 64.7952 35.3744 65.4715 34.542C65.9602 34.1606 66.3221 34.0732 66.9245 34.0602C67.0479 34.0572 67.1712 34.0542 67.2983 34.0511C67.4308 34.0486 67.5632 34.0461 67.6997 34.0435C67.8359 34.0404 67.972 34.0373 68.1123 34.034C68.5472 34.0242 68.9821 34.0154 69.4171 34.0065C69.7119 34 70.0068 33.9935 70.3016 33.9868C71.0245 33.9708 71.7473 33.9555 72.4702 33.9408C72.4694 33.7932 72.4686 33.6456 72.4678 33.4936C72.4651 32.9347 72.4634 32.3759 72.4619 31.817C72.4612 31.5772 72.4602 31.3375 72.4589 31.0977C72.4505 29.5326 72.4922 27.9858 72.6205 26.4254C72.434 26.424 72.2475 26.4226 72.0553 26.4212C71.3611 26.4151 70.667 26.4053 69.9729 26.3942C69.6729 26.39 69.3728 26.3868 69.0728 26.3847C68.6407 26.3814 68.2087 26.3744 67.7766 26.3667C67.6432 26.3665 67.5098 26.3663 67.3723 26.3661C66.5454 26.3467 66.0608 26.2262 65.4058 25.6739C64.4863 24.4754 64.7936 22.6472 64.8727 21.2263C64.9901 20.4938 65.2036 20.0062 65.7411 19.4897C66.2311 19.1612 66.4844 19.1351 67.069 19.1343Z" fill="url(#paint2_linear_25_94)"/>
<path d="M24.4285 67.1046C24.6777 67.1047 24.9269 67.1046 25.1761 67.1043C25.6956 67.1044 26.215 67.1059 26.7345 67.1086C27.3954 67.1121 28.0563 67.1121 28.7173 67.1111C29.2311 67.1106 29.7448 67.1116 30.2586 67.1131C30.5021 67.1137 30.7456 67.1139 30.9891 67.1136C35.1203 67.1129 35.1203 67.1129 36.5094 68.4679C37.3007 69.3409 37.5815 70.1941 37.5991 71.3678C37.4555 72.6222 36.7875 73.5013 35.8307 74.2923C34.5231 75.1952 32.8073 75.0687 31.2863 75.1254V78.8831L32.5451 78.8643C35.2884 78.853 35.2884 78.853 36.3967 79.785C37.1978 80.5938 37.64 81.283 37.6555 82.4529C37.6326 83.489 37.428 84.2665 36.7272 85.0463C35.4889 86.1981 34.2344 86.4247 32.592 86.4079L32.2113 86.4058C31.9029 86.4041 31.5946 86.4013 31.2863 86.3985L31.2796 86.9865C31.2709 87.7104 31.2592 88.4342 31.2468 89.158C31.2418 89.4706 31.2376 89.7831 31.2342 90.0957C31.2291 90.5465 31.2212 90.9971 31.2129 91.4479L31.2099 91.8674C31.1893 92.7838 31.113 93.716 30.4882 94.4437C29.3705 95.4475 28.0378 95.3365 26.6267 95.2666C25.873 95.192 25.4175 95.0826 24.8231 94.5996C23.7853 93.27 24.404 90.3054 24.4689 88.7141C24.5023 87.8914 24.532 87.0716 24.5224 86.2482L24.2295 86.281C22.1924 86.4903 20.2365 86.6821 18.5025 85.4444C17.9656 84.9892 17.6816 84.5142 17.458 83.8433C17.4357 83.4497 17.4233 83.0627 17.4204 82.669L17.411 82.3505C17.4041 81.4177 17.6458 80.8351 18.2565 80.1419C19.6684 78.8942 21.0655 78.8344 22.8878 78.8643L24.5224 78.8831L24.3721 75.1254C23.3449 75.094 23.3449 75.094 22.3175 75.0671C20.9067 75.0135 19.8164 74.7536 18.7797 73.7645C18.044 72.9663 17.6434 72.2441 17.5895 71.1441C17.6518 69.8929 18.2223 69.0581 19.1114 68.2113C20.5596 66.9652 22.6273 67.0933 24.4285 67.1046Z" fill="url(#paint3_linear_25_94)"/>
<path d="M70.5096 67.1344C70.6261 67.1336 70.7425 67.1329 70.8625 67.1321C71.2457 67.1299 71.6288 67.1289 72.0119 67.1281C72.2094 67.1274 72.2094 67.1274 72.4108 67.1268C73.1074 67.1245 73.804 67.1231 74.5006 67.1225C75.2169 67.1217 75.9331 67.1181 76.6494 67.1138C77.2031 67.111 77.7568 67.1102 78.3105 67.11C78.5744 67.1095 78.8383 67.1083 79.1022 67.1063C81.0271 67.0929 82.7239 67.1167 84.1938 68.5114C84.9082 69.2857 85.2275 70.0833 85.256 71.1341C85.1948 72.345 84.7214 73.1585 83.8369 73.9694C82.9272 74.6971 81.9173 74.9967 80.7573 74.9892C80.577 74.9887 80.577 74.9887 80.3931 74.9881C80.243 74.9867 80.0929 74.9854 79.9383 74.9839C79.2175 74.9793 79.2175 74.9793 78.4822 74.9746C78.5318 76.2642 78.5814 77.5538 78.6325 78.8825C79.1564 79.0135 79.54 79.0513 80.0721 79.054C80.2343 79.0569 80.3965 79.0598 80.5636 79.0628C80.9021 79.0678 81.2407 79.0706 81.5793 79.071C82.7748 79.098 83.5657 79.3078 84.4217 80.1621C85.3752 81.2493 85.3476 82.3119 85.274 83.6918C85.1865 84.6326 84.8108 85.258 84.0999 85.8624C82.9239 86.6247 81.55 86.5906 80.1919 86.567C80.041 86.5656 79.89 86.5643 79.7345 86.5629C79.3671 86.5594 78.9998 86.5545 78.6325 86.5482C78.634 86.6836 78.634 86.6836 78.6355 86.8217C78.6455 87.7629 78.6523 88.7041 78.6573 89.6453C78.6595 89.9964 78.6626 90.3475 78.6665 90.6985C78.672 91.2037 78.6745 91.7088 78.6765 92.2141C78.6788 92.3705 78.6812 92.527 78.6836 92.6881C78.6838 93.5088 78.6582 94.1126 78.1816 94.8151C77.3799 95.4208 76.4565 95.3382 75.4948 95.3318C75.3369 95.3348 75.179 95.3378 75.0163 95.3409C74.0949 95.3403 73.1882 95.307 72.4699 94.6648C71.9922 93.928 71.9561 93.3256 71.9697 92.4783C71.9699 92.3563 71.9702 92.2344 71.9705 92.1088C71.9715 91.8516 71.9736 91.5944 71.9767 91.3372C71.9814 90.948 71.9829 90.5589 71.9837 90.1696C71.9896 88.9536 72.0152 87.7562 72.1693 86.5482C72.0732 86.5513 71.9772 86.5545 71.8782 86.5577C67.8685 86.672 67.8685 86.672 66.7389 85.6604C65.7282 84.566 65.6253 83.6628 65.6591 82.2128C65.7124 81.2146 66.0315 80.6676 66.7207 79.9629C67.8994 79.1695 68.9063 79.1229 70.2904 79.155C70.8609 79.1643 71.4313 79.1736 72.019 79.1831C72.019 77.8439 72.019 76.5047 72.019 75.1249C71.1828 75.0876 71.1828 75.0876 70.3465 75.053C68.7066 74.9709 67.4504 74.5549 66.3261 73.3212C65.5632 72.4412 65.4869 71.6359 65.51 70.4988C65.6046 69.4982 66.0061 68.915 66.7301 68.2389C67.8768 67.3049 69.0565 67.1366 70.5096 67.1344Z" fill="url(#paint4_linear_25_94)"/>
<defs>
<linearGradient id="paint0_linear_25_94" x1="0" y1="0" x2="10489.4" y2="10328.7" gradientUnits="userSpaceOnUse">
<stop stop-color="#3b82f6"/>
<stop offset="1" stop-color="#1e3a8a"/>
</linearGradient>
<linearGradient id="paint1_linear_25_94" x1="26.2209" y1="14.0615" x2="180.515" y2="133.733" gradientUnits="userSpaceOnUse">
<stop stop-color="#3b82f6"/>
<stop offset="1" stop-color="#1e3a8a"/>
</linearGradient>
<linearGradient id="paint2_linear_25_94" x1="62.3555" y1="19.1279" x2="238.232" y2="77.7078" gradientUnits="userSpaceOnUse">
<stop stop-color="#3b82f6"/>
<stop offset="1" stop-color="#1e3a8a"/>
</linearGradient>
<linearGradient id="paint3_linear_25_94" x1="17.4109" y1="67.0957" x2="246.776" y2="124.715" gradientUnits="userSpaceOnUse">
<stop stop-color="#3b82f6"/>
<stop offset="1" stop-color="#1e3a8a"/>
</linearGradient>
<linearGradient id="paint4_linear_25_94" x1="65.5066" y1="67.1045" x2="347.909" y2="139.117" gradientUnits="userSpaceOnUse">
<stop stop-color="#3b82f6"/>
<stop offset="1" stop-color="#1e3a8a"/>
</linearGradient>
</defs>
</svg>
